<?xml version="1.0" standalone="no"?>
<!DOCTYPE svg PUBLIC "-//W3C//DTD SVG 20010904//EN"
 "http://www.w3.org/TR/2001/REC-SVG-20010904/DTD/svg10.dtd">
<svg version="1.0" xmlns="http://www.w3.org/2000/svg"
 width="81.000000pt" height="81.000000pt" viewBox="0 0 81.000000 81.000000"
 preserveAspectRatio="xMidYMid meet">
<metadata>
Created by potrace 1.10, written by Peter Selinger 2001-2011
</metadata>
<g transform="translate(0.000000,81.000000) scale(0.050000,-0.050000)"
fill="#f5c16c" stroke="none">
<path d="M155 1465 l-135 -136 135 -135 135 -136 -138 -125 -138 -125 138
-123 138 -123 -135 -137 -135 -136 140 -139 140 -139 136 135 137 136 123
-136 124 -136 125 135 125 135 135 -135 135 -134 140 139 140 139 -135 136
-134 135 138 125 137 124 -137 126 -138 125 135 136 134 135 -140 139 -140
139 -135 -134 -135 -135 -125 135 -125 135 -125 -136 -125 -136 -129 131
c-157 158 -125 159 -286 -4z m542 -275 l122 -131 129 136 129 135 132 -130
133 -130 -131 -127 c-130 -126 -148 -153 -113 -166 10 -4 70 -56 132 -115
l114 -108 -133 -132 -133 -132 -129 135 -129 135 -129 -135 -128 -135 -132
130 -133 130 131 127 c157 152 157 115 0 265 l-130 126 125 126 c151 153 126
153 273 -4z"/>
</g>

<g transform="translate(0.000000,81.000000) scale(0.050000,-0.050000)"
fill="#eb5a29" stroke="none">
<path d="M160 1470 l-129 -130 134 -135 135 -135 130 131 130 130 -135 134
-136 135 -129 -130z"/>
<path d="M1215 1465 l-135 -136 130 -129 130 -129 135 134 135 135 -131 130
-130 130 -134 -135z"/>
<path d="M160 410 l-129 -130 129 -130 129 -130 135 134 136 135 -124 125
c-151 152 -121 153 -276 -4z"/>
<path d="M1204 414 l-124 -125 136 -135 135 -134 129 130 129 130 -129 130
c-155 157 -125 156 -276 4z"/>
</g>
</svg>
